# AST/ASF file generated using VICON BodyLanguage
# -----------------------------------------------
:version 1.10
:name VICON
:units
  mass 1.0
  length 0.45
  angle deg
:documentation
   .ast/.asf automatically generated from VICON data using
   VICON BodyBuilder and BodyLanguage model FoxedUp or BRILLIANT.MOD
:root
   order TX TY TZ RX RY RZ
   axis XYZ
   position 0 0 0  
   orientation 0 0 0 
:bonedata
  begin
     id 1 
     name lhipjoint
     direction 0.576517 -0.752066 0.319413 
     length 2.45433 
     axis 0 0 0  XYZ
  end
  begin
     id 2 
     name lfemur
     direction 0.34202 -0.939693 0  
     length 7.54459  
     axis 0 0 20  XYZ
    dof rx ry rz
    limits (-160.0 20.0)
           (-70.0 70.0)
           (-60.0 70.0)
  end
  begin
     id 3 
     name ltibia
     direction 0.34202 -0.939693 0   
     length 7.73986   
     axis 0 0 20   XYZ
    dof rx
    limits (-10.0 170.0)
  end
  begin
     id 4 
     name lfoot
     direction 0.090693 -0.249177 0.964202   
     length 2.28437   
     axis -90 7.62852e-016 20   XYZ
    dof rx rz
    limits (-45.0 90.0)
           (-70.0 20.0)
  end
  begin
     id 5 
     name ltoes
     direction 1.5356e-011 -4.21928e-011 1   
     length 1.14243   
     axis -90 7.62852e-016 20   XYZ
    dof rx
    limits (-90.0 20.0)
  end
  begin
     id 6 
     name rhipjoint
     direction -0.573937 -0.753736 0.320122   
     length 2.44889  
     axis 0 0 0  XYZ 
  end
  begin
     id 7 
     name rfemur
     direction -0.34202 -0.939693 0   
     length 7.50166   
     axis 0 0 -20   XYZ
    dof rx ry rz
    limits (-160.0 20.0)
           (-70.0 70.0)
           (-70.0 60.0)
  end
  begin
     id 8 
     name rtibia
     direction -0.34202 -0.939693 0   
     length 7.54266   
     axis 0 0 -20   XYZ
    dof rx
    limits (-10.0 170.0)
 end
 begin
     id 9 
     name rfoot
     direction -0.114017 -0.31326 0.942798   
     length 2.34212  
     axis -90 -7.62852e-016 -20   XYZ
    dof rx rz
    limits (-45.0 90.0)
           (-20.0 70.0)
  end
  begin
     id 10 
     name rtoes
     direction -1.53557e-011 -4.21867e-011 1   
     length 1.16246   
     axis -90 -7.62852e-016 -20   XYZ
    dof rx
    limits (-90.0 20.0)
  end
  begin
     id 11 
     name lowerback
     direction -0.0228371 0.999155 -0.034167   
     length 2.0537   
     axis 0 0 0   XYZ
    dof rx ry rz
    limits (-20.0 45.0)
           (-30.0 30.0)
           (-30.0 30.0)
  end
  begin
     id 12 
     name upperback
     direction 0.0198981 0.999794 0.00389455   
     length 2.05302   
     axis 0 0 0   XYZ
    dof rx ry rz
    limits (-20.0 45.0)
           (-30.0 30.0)
           (-30.0 30.0)
  end
  begin
     id 13 
     name thorax
     direction 0.0304566 0.99935 0.0192987   
     length 2.05315   
     axis 0 0 0   XYZ
    dof rx ry rz
    limits (-20.0 45.0)
           (-30.0 30.0)
           (-30.0 30.0)
  end
  begin
     id 14 
     name lowerneck
     direction -0.0196762 0.99417 0.106017   
     length 1.82056   
     axis 0 0 0   XYZ
    dof rx ry rz
    limits (-20.0 45.0)
           (-30.0 30.0)
           (-30.0 30.0)
  end
  begin
     id 15 
     name upperneck
     direction 0.00517787 0.9802 -0.197944   
     length 1.83835   
     axis 0 0 0   XYZ
    dof rx ry rz
    limits (-20.0 45.0)
           (-30.0 30.0)
           (-30.0 30.0)
  end
  begin
     id 16
     name head
     direction 0.00211419 0.996945 -0.078081  
     length 1.85629  
     axis 0 0 0   XYZ
    dof rx ry rz
    limits (-20.0 45.0)
           (-30.0 30.0)
           (-30.0 30.0)
  end
  begin
     id 17 
     name lclavicle
     direction 0.930001 0.365811 -0.0357824  
     length 3.81961  
     axis 0 0 0   XYZ
    dof ry rz
    limits (-20.0 10.0)
           (0.0 20.0)
  end
  begin
     id 18 
     name lhumerus
     direction 1 -4.48968e-011 -3.06644e-027   
     length 5.14507   
     axis 180 -30 -90   XYZ
    dof rx ry rz
    limits (-60.0 90.0)
           (-90.0 90.0)
           (-90.0 90.0)
  end
  begin
     id 19
     name lradius
     direction 1 -4.48965e-011 9.06925e-028   
     length 3.50646   
     axis 180 -30 -90   XYZ
    dof rx
    limits (-10.0 170.0)
  end
  begin
     id 20
     name lwrist
     direction 1 -4.48957e-011 1.03922e-027   
     length 1.75323   
     axis -2.56395e-016 90 90   XYZ
    dof ry
    limits (-180.0 0.0)
 end
  begin
     id 21 
     name lhand
     direction 1 -4.48967e-011 2.08017e-027   
     length 0.629969   
     axis -1.32723e-015 90 90   XYZ
    dof rx rz
    limits (-90.0 90.0)
           (-45.0 45.0)
  end
  begin
     id 22 
     name lfingers
     direction 1 -4.49089e-011 4.20095e-027   
     length 0.507897   
     axis -2.6545e-015 90 90   XYZ
    dof rx
    limits (0.0 90.0)
  end
  begin
     id 23
     name lthumb
     direction 0.707107 -6.35001e-011 0.707107   
     length 0.729241   
     axis -90 45 5.05613e-014   XYZ
    dof rx rz
    limits (-45.0 45.0)
           (-45.0 45.0)
  end
  begin
     id 24 
     name rclavicle
     direction -0.881882 0.464123 -0.0829113   
     length 3.47515  
     axis 0 0 0   XYZ 
    dof ry rz
    limits (-10.0 20.0)
           (-20.0 0.0)
  end
  begin
     id 25 
     name rhumerus
     direction -1 -4.48961e-011 -1.55672e-027  
     length 5.232   
     axis 180 30 90   XYZ
    dof rx ry rz
    limits (-90.0 60.0)
           (-90.0 90.0)
           (-90.0 90.0)
  end
  begin
     id 26 
     name rradius
     direction -1 -4.48963e-011 6.18178e-029   
     length 3.65641   
     axis 180 30 90   XYZ
    dof rx
    limits (-10.0 170.0)
  end
  begin
     id 27 
     name rwrist
     direction -1 -4.48982e-011 1.04136e-027   
     length 1.8282   
     axis -2.56395e-016 -90 -90   XYZ
    dof ry
    limits (-180.0 0.0)
  end
  begin
     id 28
     name rhand
     direction -1 -4.48929e-011 2.07378e-027   
     length 0.656807   
     axis -1.32723e-015 -90 -90   XYZ
    dof rx rz
    limits (-90.0 90.0)
           (-45.0 45.0)
  end
  begin
     id 29
     name rfingers
     direction -1 -4.489e-011 4.13816e-027   
     length 0.529535   
     axis -2.6545e-015 -90 -90   XYZ
    dof rx
    limits (0.0 90.0)
  end
  begin
     id 30
     name rthumb
     direction -0.707107 -6.34843e-011 0.707107   
     length 0.760309   
     axis -90 -45 -5.05613e-014   XYZ
    dof rx rz
    limits (-45.0 45.0)
           (-45.0 45.0)
  end
:hierarchy
  begin
    root lhipjoint rhipjoint lowerback
    lhipjoint lfemur
    lfemur ltibia
    ltibia lfoot
    lfoot ltoes
    rhipjoint rfemur
    rfemur rtibia
    rtibia rfoot
    rfoot rtoes
    lowerback upperback
    upperback thorax
    thorax lowerneck lclavicle rclavicle
    lowerneck upperneck
    upperneck head
    lclavicle lhumerus
    lhumerus lradius
    lradius lwrist
    lwrist lhand lthumb
    lhand lfingers
    rclavicle rhumerus
    rhumerus rradius
    rradius rwrist
    rwrist rhand rthumb
    rhand rfingers
  end

#!OML:ASF H:\ManfredETheater\Project 1\Capture day 1\Session 1\subject.ASF
:FULLY-SPECIFIED
:DEGREES
32
root 5.29981 15.1427 28.3674 -160.451 -0.753962 188.069
lowerback 15.8364 5.37498 6.73716
upperback 3.67401 9.02234 2.22788
thorax -4.23736 4.67147 -3.09593
lowerneck -18.2339 -1.90779 -1.15827
upperneck -2.42384 -2.92354 -3.04556
head 2.3307 -1.8854 -1.0269
rclavicle -1.22451e-013 2.3059e-014
rhumerus -29.7173 18.0033 -80.8709
rradius 122.535
rwrist -3.68096
rhand -26.945 4.8486
rfingers 7.12502
rthumb -0.366963 -25.1308
lclavicle -1.22451e-013 2.3059e-014
lhumerus -95.4899 -10.1793 79.6215
lradius 90.866
lwrist 11.2367
lhand -22.234 -21.6738
lfingers 7.12502
lthumb 4.18285 8.26491
rfemur 20.4216 5.71069 25.801
rtibia 15.8785
rfoot 15.3598 3.94041
rtoes -41.586
lfemur -78.6367 3.58849 -14.3387
ltibia 49.8006
lfoot -5.65244 -6.89695
ltoes -23.2381
33
root 5.26798 15.1718 27.8052 -160.605 -1.29481 188.549
lowerback 15.4405 5.39968 7.0329
upperback 3.40867 9.04694 2.20158
thorax -4.25434 4.66158 -3.25417
lowerneck -18.1864 -2.02767 -1.23189
upperneck -2.19441 -3.03779 -2.60514
head 2.40733 -1.90979 -0.880156
rclavicle 1.90833e-014 -2.70347e-014
rhumerus -31.2807 16.2076 -82.2357
rradius 119.271
rwrist -3.65224
rhand -26.6304 3.39667
rfingers 7.12502
rthumb -0.0631271 -26.5831
lclavicle 1.90833e-014 -2.70347e-014
lhumerus -93.4256 -7.9934 78.8231
lradius 92.0251
lwrist 11.8687
lhand -22.4347 -21.2045
lfingers 7.12502
lthumb 3.989 8.7379
rfemur 18.458 5.72585 26.4581
rtibia 21.8024
rfoot 13.5804 3.57794
rtoes -41.4917
lfemur -77.8436 3.71596 -14.5949
ltibia 49.3691
lfoot -4.44971 -6.948
ltoes -24.4875
34
root 5.23784 15.2087 27.2522 -160.853 -1.82763 188.89
lowerback 15.2434 6.07692 7.38946
upperback 3.12642 8.7845 2.16817
thorax -4.35154 4.01588 -3.37738
lowerneck -18.1551 -2.0851 -1.26187
upperneck -2.06956 -3.09419 -2.17396
head 2.45131 -1.91007 -0.738635
rclavicle -1.51076e-014 -8.18993e-014
rhumerus -32.7735 14.1957 -83.6661
rradius 115.392
rwrist -3.75147
rhand -26.1528 1.92655
rfingers 7.12502
rthumb 0.398193 -28.0528
lclavicle -1.51076e-014 -8.18993e-014
lhumerus -90.989 -5.72112 78.5101
lradius 93.0678
lwrist 12.776
lhand -22.592 -20.8892
lfingers 7.12502
lthumb 3.83713 9.056
rfemur 16.1765 5.25945 26.8416
rtibia 28.4064
rfoot 11.3357 2.83214
rtoes -41.5604
lfemur -77.0379 3.83469 -15.0043
ltibia 49.7913
lfoot -3.30908 -7.13536
ltoes -24.8288
35
root 5.21069 15.2529 26.7096 -161.245 -2.3517 189.006
lowerback 15.2464 5.90752 7.30264
upperback 2.90697 8.59097 2.06702
thorax -4.60611 3.91929 -3.42443
lowerneck -18.0759 -2.08444 -1.25338
upperneck -2.1025 -3.09982 -1.76846
head 2.43152 -1.89072 -0.605438
rclavicle 1.05753e-013 3.97569e-014
rhumerus -34.1225 12.0141 -85.0213
rradius 110.964
rwrist -4.06803
rhand -25.6437 0.531012
rfingers 7.12502
rthumb 0.889862 -29.4469
lclavicle 1.05753e-013 3.97569e-014
lhumerus -88.1679 -3.49065 78.7277
lradius 93.9659
lwrist 13.8915
lhand -22.666 -20.7405
lfingers 7.12502
lthumb 3.76568 9.20594
rfemur 13.76 4.42333 26.9005
rtibia 35.3762
rfoot 9.17426 1.87712
rtoes -41.5815
lfemur -76.1248 3.86525 -15.5706
ltibia 50.8999
lfoot -2.35834 -7.4441
ltoes -23.7605
36
root 5.18749 15.304 26.1787 -161.813 -2.88847 188.817
lowerback 15.5016 5.66782 6.92056
upperback 2.7416 8.26892 1.92242
thorax -4.98924 3.75756 -3.36225
lowerneck -17.9425 -2.047 -1.22741
upperneck -2.27812 -3.07503 -1.38588
head 2.35202 -1.8618 -0.478118
rclavicle -9.81996e-014 -1.74931e-014
rhumerus -35.2816 9.71025 -86.1873
rradius 106.037
rwrist -4.70881
rhand -25.2096 -0.716011
rfingers 7.12502
rthumb 1.3091 -30.6917
lclavicle -9.81996e-014 -1.74931e-014
lhumerus -84.9325 -1.47812 79.4979
lradius 94.6941
lwrist 15.0979
lhand -22.7194 -20.6933
lfingers 7.12502
lthumb 3.71404 9.25407
rfemur 11.2647 3.29669 26.5867
rtibia 42.6473
rfoot 7.24716 1.13737
rtoes -41.2925
lfemur -75.0279 3.73715 -16.3202
ltibia 52.5065
lfoot -1.78161 -7.87324
ltoes -20.9444
37
root 5.16799 15.3704 25.6575 -162.56 -3.45528 188.263
lowerback 16.0022 5.37607 6.19132
upperback 2.63598 7.8247 1.72644
thorax -5.49097 3.53754 -3.16278
lowerneck -17.7572 -1.99483 -1.18643
upperneck -2.54288 -3.04104 -1.0383
head 2.23194 -1.83321 -0.362962
rclavicle -3.29983e-014 -7.95139e-016
rhumerus -36.2419 7.32904 -87.0726
rradius 100.651
rwrist -5.71313
rhand -24.9214 -1.80453
rfingers 7.12502
rthumb 1.58751 -31.7784
lclavicle -3.29983e-014 -7.95139e-016
lhumerus -81.2419 0.125337 80.8118
lradius 95.1891
lwrist 16.2338
lhand -22.8481 -20.6867
lfingers 7.12502
lthumb 3.58975 9.26277
rfemur 8.73452 1.93761 25.8469
rtibia 50.0946
rfoot 5.42075 0.78917
rtoes -41.0527
lfemur -73.598 3.40449 -17.2875
ltibia 54.3375
lfoot -1.74353 -8.27861
ltoes -16.658
